<svg width="41" height="41" viewBox="0 0 41 41" fill="none" xmlns="http://www.w3.org/2000/svg">
<circle cx="20.5" cy="20.5" r="20.5" fill="#D9D9D9"/>
<path fill-rule="evenodd" clip-rule="evenodd" d="M18.005 26.1749L26.8025 17.3774C27.4045 16.8165 27.6523 15.9717 27.4487 15.1745C27.2451 14.3773 26.6226 13.7548 25.8254 13.5512C25.0282 13.3476 24.1835 13.5954 23.6225 14.1974L14.8025 23.0174C14.7461 23.0754 14.6982 23.141 14.66 23.2124L12.575 27.4199C12.461 27.6526 12.4752 27.9276 12.6125 28.1474C12.7499 28.3671 12.9909 28.5004 13.25 28.4999C13.3738 28.497 13.4949 28.4635 13.6025 28.4024L17.81 26.3174C17.8814 26.2793 17.947 26.2313 18.005 26.1749ZM26.75 28.4999C27.1643 28.4999 27.5 28.1641 27.5 27.7499C27.5 27.3357 27.1643 26.9999 26.75 26.9999H20C19.5858 26.9999 19.25 27.3357 19.25 27.7499C19.25 28.1641 19.5858 28.4999 20 28.4999H26.75ZM23.24 18.8174L22.1825 17.7599L15.9725 23.9999L14.93 26.0999L17 25.0274L23.24 18.8174ZM25.2238 14.9989C25.4294 14.9989 25.6259 15.0833 25.7675 15.2324C25.9137 15.377 25.9941 15.5754 25.9898 15.781C25.9855 15.9866 25.8971 16.1814 25.745 16.3199L24.2975 17.7599L23.24 16.7024L24.68 15.2324C24.8216 15.0833 25.0182 14.9989 25.2238 14.9989Z" fill="#231F20"/>
</svg>
