<svg width="48" height="48" viewBox="0 0 48 48" fill="none" xmlns="http://www.w3.org/2000/svg">
<path fill-rule="evenodd" clip-rule="evenodd" d="M44 38C44 41.3137 41.3137 44 38 44H10C6.68629 44 4 41.3137 4 38V10C4 6.68629 6.68629 4 10 4H38C41.3137 4 44 6.68629 44 10V38ZM36 24C36 25.1046 35.1046 26 34 26H26V34C26 35.1046 25.1046 36 24 36C22.8954 36 22 35.1046 22 34V26H14C12.8954 26 12 25.1046 12 24C12 22.8954 12.8954 22 14 22H22V14C22 12.8954 22.8954 12 24 12C25.1046 12 26 12.8954 26 14V22H34C35.1046 22 36 22.8954 36 24ZM38 8C39.1046 8 40 8.89543 40 10V38C40 39.1046 39.1046 40 38 40H10C8.89543 40 8 39.1046 8 38V10C8 8.89543 8.89543 8 10 8H38Z" fill="white"/>
</svg>
