<svg width="42" height="42" viewBox="0 0 42 42" fill="none" xmlns="http://www.w3.org/2000/svg">
<path fill-rule="evenodd" clip-rule="evenodd" d="M36.3748 19.2917H34.5469C33.7626 13.1073 28.8927 8.23727 22.7082 7.453V5.62508C22.7082 4.68159 21.9433 3.91675 20.9998 3.91675C20.0563 3.91675 19.2915 4.68159 19.2915 5.62508V7.453C13.107 8.23727 8.23702 13.1073 7.45275 19.2917H5.62484C4.68135 19.2917 3.9165 20.0566 3.9165 21.0001C3.9165 21.9436 4.68135 22.7084 5.62484 22.7084H7.45275C8.23702 28.8929 13.107 33.7629 19.2915 34.5472V36.3751C19.2915 37.3186 20.0563 38.0834 20.9998 38.0834C21.9433 38.0834 22.7082 37.3186 22.7082 36.3751V34.5472C28.8927 33.7629 33.7626 28.8929 34.5469 22.7084H36.3748C37.3183 22.7084 38.0832 21.9436 38.0832 21.0001C38.0832 20.0566 37.3183 19.2917 36.3748 19.2917ZM15.8748 21.0001C15.8748 18.1696 18.1694 15.8751 20.9998 15.8751C23.8303 15.8751 26.1248 18.1696 26.1248 21.0001C26.1248 23.8305 23.8303 26.1251 20.9998 26.1251C18.1694 26.1251 15.8748 23.8305 15.8748 21.0001ZM19.2915 21.0001C19.2915 21.9436 20.0564 22.7084 20.9998 22.7084C21.9433 22.7084 22.7082 21.9436 22.7082 21.0001C22.7082 20.0566 21.9433 19.2917 20.9998 19.2917C20.0564 19.2917 19.2915 20.0566 19.2915 21.0001ZM20.9998 29.388C21.9433 29.388 22.7082 30.1528 22.7082 31.0963C27.0024 30.3666 30.3664 27.0026 31.0961 22.7084C30.1526 22.7084 29.3878 21.9436 29.3878 21.0001C29.3878 20.0566 30.1526 19.2917 31.0961 19.2917C30.3664 14.9976 27.0024 11.6336 22.7082 10.9038C22.7082 11.8473 21.9433 12.6122 20.9998 12.6122C20.0564 12.6122 19.2915 11.8473 19.2915 10.9038C14.9973 11.6336 11.6333 14.9976 10.9036 19.2917C11.8471 19.2917 12.6119 20.0566 12.6119 21.0001C12.6119 21.9436 11.8471 22.7084 10.9036 22.7084C11.6333 27.0026 14.9973 30.3666 19.2915 31.0963C19.2915 30.1528 20.0564 29.388 20.9998 29.388Z" fill="white"/>
</svg>
