<svg width="48" height="48" viewBox="0 0 48 48" fill="none" xmlns="http://www.w3.org/2000/svg">
<path fill-rule="evenodd" clip-rule="evenodd" d="M32.62 29.8L43.42 40.58C43.7986 40.9555 44.0116 41.4667 44.0116 42C44.0116 42.5333 43.7986 43.0445 43.42 43.42C43.0445 43.7986 42.5333 44.0116 42 44.0116C41.4667 44.0116 40.9555 43.7986 40.58 43.42L29.8 32.62C27.0049 34.814 23.5533 36.0044 20 36C11.1634 36 4 28.8366 4 20C4 11.1634 11.1634 4 20 4C28.8366 4 36 11.1634 36 20C36.0044 23.5533 34.814 27.0049 32.62 29.8ZM20 8C13.3726 8 8 13.3726 8 20C8 26.6274 13.3726 32 20 32C26.6274 32 32 26.6274 32 20C32 13.3726 26.6274 8 20 8Z" fill="white"/>
</svg>
