<svg width="42" height="42" viewBox="0 0 42 42" fill="none" xmlns="http://www.w3.org/2000/svg">
<path fill-rule="evenodd" clip-rule="evenodd" d="M21.0001 3.91663C27.6045 3.91663 32.9584 9.27055 32.9584 15.875C33.1976 21.222 28.9097 28.3458 22.3838 37.3658C22.0626 37.8096 21.5479 38.0723 21.0001 38.0723C20.4522 38.0723 19.9376 37.8096 19.6163 37.3658C13.0905 28.3287 8.80258 21.205 9.04175 15.875C9.04175 9.27055 14.3957 3.91663 21.0001 3.91663ZM21.0001 33.4879C25.5613 27.0304 29.7809 20.2141 29.5417 16.0287V15.9775V15.875C29.5417 11.1575 25.7175 7.33329 21.0001 7.33329C16.2826 7.33329 12.4584 11.1575 12.4584 15.875V15.9775C12.2192 20.1629 16.4388 26.9791 21.0001 33.4879ZM21.0001 10.75C18.1696 10.75 15.8751 13.0445 15.8751 15.875C15.8751 18.7054 18.1696 21 21.0001 21C23.8305 21 26.1251 18.7054 26.1251 15.875C26.1251 14.5157 25.5851 13.2122 24.624 12.251C23.6629 11.2899 22.3593 10.75 21.0001 10.75ZM19.2917 15.875C19.2917 16.8184 20.0566 17.5833 21.0001 17.5833C21.9436 17.5833 22.7084 16.8184 22.7084 15.875C22.7084 14.9315 21.9436 14.1666 21.0001 14.1666C20.0566 14.1666 19.2917 14.9315 19.2917 15.875Z" fill="white"/>
</svg>
