<svg width="15" height="16" viewBox="0 0 15 16" fill="none" xmlns="http://www.w3.org/2000/svg">
<path fill-rule="evenodd" clip-rule="evenodd" d="M13.75 4.10028V12.8503C13.75 13.8858 12.9105 14.7253 11.875 14.7253H3.125C2.08947 14.7253 1.25 13.8858 1.25 12.8503V4.10028C1.25 3.06475 2.08947 2.22528 3.125 2.22528H11.875C12.9105 2.22528 13.75 3.06475 13.75 4.10028ZM11.0687 5.79403L8.38125 8.47528L11.0687 11.1565C11.1871 11.2739 11.2536 11.4336 11.2536 11.6003C11.2536 11.7669 11.1871 11.9267 11.0687 12.044C10.9514 12.1624 10.7916 12.2289 10.625 12.2289C10.4584 12.2289 10.2986 12.1624 10.1812 12.044L7.5 9.35653L4.81875 12.044C4.7014 12.1624 4.54165 12.2289 4.375 12.2289C4.20835 12.2289 4.0486 12.1624 3.93125 12.044C3.81293 11.9267 3.74638 11.7669 3.74638 11.6003C3.74638 11.4336 3.81293 11.2739 3.93125 11.1565L6.61875 8.47528L3.93125 5.79403C3.68617 5.54895 3.68617 5.15161 3.93125 4.90653C4.17633 4.66145 4.57367 4.66145 4.81875 4.90653L7.5 7.59403L10.1812 4.90653C10.4263 4.66145 10.8237 4.66145 11.0687 4.90653C11.3138 5.15161 11.3138 5.54895 11.0687 5.79403ZM11.875 3.47528C12.2202 3.47528 12.5 3.7551 12.5 4.10028V12.8503C12.5 13.1955 12.2202 13.4753 11.875 13.4753H3.125C2.77982 13.4753 2.5 13.1955 2.5 12.8503V4.10028C2.5 3.7551 2.77982 3.47528 3.125 3.47528H11.875Z" fill="white"/>
</svg>
